<?xml version="1.0" encoding="UTF-8"?> <svg xmlns="http://www.w3.org/2000/svg" xmlns:xlink="http://www.w3.org/1999/xlink" version="1.1" id="Layer_1" x="0px" y="0px" viewBox="0 0 80 80" style="enable-background:new 0 0 80 80;" xml:space="preserve"> <style type="text/css"> .st0{fill:#711D1C;} .st1{fill:#FFFFFF;} </style> <circle className="st0" cx="40" cy="40" r="40"></circle> <path className="st1" d="M57.9,29.2c-2-2-4.7-3.1-7.5-3.1c-0.1,0-0.2,0-0.3,0C48.6,22,44.6,19,40,19c-4.6,0-8.6,3-10.1,7.1 c-0.1,0-0.2,0-0.3,0c-2.8,0-5.5,1.1-7.5,3.1c-4.2,4.1-4.2,10.9,0,15l3,3c-0.3,1-0.5,2-0.5,3.1c0,5.9,4.8,10.6,10.7,10.6h9.4 c5.9,0,10.7-4.8,10.7-10.6c0-1.1-0.2-2.1-0.5-3.1l3-3C62,40.1,62,33.4,57.9,29.2z M52.9,49.9l-2.7-1.2c-3.5-1.5-7.5-1.3-10.8,0.6 c-2.6,1.5-5.8,1.7-8.6,0.5l-3.4-1.5c0.9-3.5,4.1-6.1,7.9-6.1h9.4C49.1,42.2,52.6,45.6,52.9,49.9z M35.4,31l6.7,6.6 c0.6,0.6,1.2,1.4,1.5,2.2h-8c-0.7-0.4-1.5-0.7-2.3-0.9c-2.9-0.8-5.3-2.9-6.4-5.7l-1.4-3.5c1.2-0.7,2.7-1.1,4.2-1.1 C31.8,28.6,33.9,29.4,35.4,31z M43.8,35.9l-2.1-2.1l2.8-2.8c1.5-1.5,3.6-2.4,5.8-2.4c2,0,3.9,0.7,5.4,2L53,31.7 c-3.3,1.3-5.9,4-7,7.4C45.5,37.9,44.8,36.8,43.8,35.9z M47.6,26.5c-1.8,0.5-3.4,1.4-4.7,2.7l-2.6,2.6c-0.7-2.2-0.6-4.6,0.3-6.7 l1.5-3.4C44.6,22.4,46.6,24.2,47.6,26.5z M39.5,21.5l-1.2,2.7c-0.7,1.7-1.1,3.5-1,5.2l-0.1-0.1c-1.3-1.3-3-2.3-4.7-2.7 C33.6,23.7,36.3,21.7,39.5,21.5z M23.9,42.5c-3.1-3.1-3.2-8-0.4-11.2l1.1,2.7c1.2,3,3.5,5.3,6.4,6.6c-2,0.9-3.7,2.3-4.8,4.2 L23.9,42.5z M44.7,58.5h-9.4c-4.3,0-7.9-3.4-8.2-7.7l2.7,1.2c1.5,0.7,3.2,1,4.8,1c2.1,0,4.2-0.5,6-1.6c2.6-1.5,5.8-1.7,8.6-0.5 l3.4,1.5C51.7,55.9,48.5,58.5,44.7,58.5z M53.8,44.8c-1.3-2.1-3.2-3.7-5.6-4.5c0.8-2.9,2.9-5.3,5.7-6.4l3.5-1.4 c1.8,3.1,1.4,7.2-1.3,9.9L53.8,44.8z"></path> </svg> 