<svg width="240" height="360" xmlns="http://www.w3.org/2000/svg">
	<path d="m120 243l94-54 0-109 -94 54 0 109 0 0z" fill="#808285"/>
	<path d="m120 254l-103-60 0-119 103-60 103 60 0 119 -103 60z" style="fill:none;stroke-linejoin:round;stroke-width:5;stroke:#00aeef"/>
	<path d="m214 80l-94-54 -94 54 94 54 94-54z" fill="#00aeef"/>
	<path d="m26 80l0 109 94 54 0-109 -94-54 0 0z" fill="#58595b"/>
	<path d="m120 157l47-27 0-23 -47-27 -47 27 0 54 47 27 47-27" style="fill:none;stroke-linecap:round;stroke-linejoin:round;stroke-width:15;stroke:#fff"/>
	<text x="15" y="300" font-size="25px" font-family="'B Yekan'" style="fill:#292952;font-weight:bold">عضو اتحادیه کشوری</text>
	<text x="8" y="343" font-size="25px" font-family="'B Yekan'" style="fill:#292952;font-weight:bold">کسب و کارهای مجازی</text>
</svg>